<svg width="50" height="23" viewBox="0 0 50 23" fill="none" xmlns="http://www.w3.org/2000/svg">
<path fill-rule="evenodd" clip-rule="evenodd" d="M50 12.2235C48.672 13.866 47.1589 15.352 45.4945 16.6507C40.8171 20.3016 34.9409 22.4769 28.5595 22.4769C26.0357 22.4769 23.5912 22.1374 21.2687 21.4999L16.1887 19.5446L11.6406 17.7914L2.78675 14.3825L0.644905 13.5575L0.512692 13.5059C0.208603 13.3613 0 13.0499 0 12.6883C0 12.5703 0.0220355 12.4567 0.0646374 12.3533C0.114585 12.2678 0.166001 12.1822 0.218886 12.098C1.27659 10.3714 2.53408 8.7806 3.96051 7.36095C8.5292 2.81127 14.8152 0 21.7564 0C24.4579 0 27.061 0.426486 29.5026 1.216C23.6823 2.66665 18.6582 6.14495 15.2162 10.8599C19.9054 9.95528 24.7473 9.48158 29.6994 9.48158C33.9699 9.48158 38.1596 9.83428 42.2391 10.5116C44.8745 10.9485 47.463 11.521 50 12.2235Z" fill="#CBF41C"/>
</svg>
