<svg width="19" height="19" viewBox="0 0 19 19" fill="none" xmlns="http://www.w3.org/2000/svg">
<path d="M17.2627 7.94942H16.625V7.91657H9.50005V11.0832H13.9742C13.3214 12.9266 11.5675 14.2499 9.50005 14.2499C6.87687 14.2499 4.75006 12.1231 4.75006 9.4999C4.75006 6.87671 6.87687 4.7499 9.50005 4.7499C10.7109 4.7499 11.8125 5.2067 12.6513 5.95284L14.8905 3.71361C13.4766 2.39589 11.5853 1.58324 9.50005 1.58324C5.12808 1.58324 1.58339 5.12792 1.58339 9.4999C1.58339 13.8719 5.12808 17.4166 9.50005 17.4166C13.872 17.4166 17.4167 13.8719 17.4167 9.4999C17.4167 8.96909 17.3621 8.45094 17.2627 7.94942Z" fill="#FFC107"/>
<path d="M2.49749 5.81509L5.09851 7.72261C5.8023 5.98015 7.50675 4.7499 9.50136 4.7499C10.7122 4.7499 11.8138 5.20669 12.6526 5.95284L14.8918 3.71361C13.4779 2.39589 11.5866 1.58324 9.50136 1.58324C6.46057 1.58324 3.82353 3.29997 2.49749 5.81509Z" fill="#FF3D00"/>
<path d="M9.50141 17.4165C11.5463 17.4165 13.4043 16.6339 14.8091 15.3613L12.3589 13.2879C11.5374 13.9127 10.5335 14.2506 9.50141 14.2498C7.44229 14.2498 5.6939 12.9368 5.03523 11.1045L2.45361 13.0936C3.76382 15.6574 6.4246 17.4165 9.50141 17.4165Z" fill="#4CAF50"/>
<path d="M17.2638 7.94937H16.6261V7.91651H9.50111V11.0832H13.9752C13.663 11.9605 13.1006 12.7271 12.3574 13.2884L12.3586 13.2876L14.8088 15.3609C14.6355 15.5185 17.4178 13.4582 17.4178 9.49984C17.4178 8.96903 17.3631 8.45089 17.2638 7.94937Z" fill="#1976D2"/>
</svg>
