<svg width="17" height="20" viewBox="0 0 17 20" fill="none" xmlns="http://www.w3.org/2000/svg">
<path d="M5.43872 20C2.46216 19.9828 0 13.9067 0 10.8122C0 5.75743 3.79195 4.6508 5.25333 4.6508C5.91192 4.6508 6.61515 4.90943 7.23542 5.1383C7.66916 5.29794 8.11775 5.46274 8.36725 5.46274C8.51658 5.46274 8.86849 5.32254 9.17919 5.19954C9.84181 4.93576 10.6663 4.60791 11.6265 4.60791C11.6282 4.60791 11.6305 4.60791 11.6322 4.60791C12.3491 4.60791 14.5229 4.76525 15.8298 6.72789L16.136 7.18792L15.6954 7.52037C15.066 7.9953 13.9175 8.86161 13.9175 10.5777C13.9175 12.6101 15.2182 13.3917 15.843 13.7676C16.1188 13.9336 16.4043 14.1047 16.4043 14.4789C16.4043 14.7232 14.4543 19.9697 11.6224 19.9697C10.9295 19.9697 10.4397 19.7614 10.0077 19.5777C9.57056 19.3918 9.19346 19.2316 8.57035 19.2316C8.25449 19.2316 7.85508 19.3809 7.43223 19.5394C6.85438 19.7551 6.20033 20 5.45818 20L5.43872 20Z" fill="white"/>
<path d="M11.9283 0C12.0021 2.65919 10.1004 4.50401 8.20087 4.38831C7.88786 2.26618 10.1001 0 11.9283 0Z" fill="white"/>
</svg>
