<svg width="22" height="22" viewBox="0 0 22 22" fill="none" xmlns="http://www.w3.org/2000/svg">
<path d="M10.105 6.43132L11.931 6.43861L11.9237 8.26465L10.0977 8.25736L10.105 6.43132ZM10.0904 10.0834L11.9164 10.0907L11.8945 15.5688L10.0685 15.5615L10.0904 10.0834ZM11.0362 1.86987C5.99635 1.84974 1.88968 5.92373 1.86956 10.9636C1.84943 16.0035 5.92342 20.1101 10.9633 20.1303C16.0032 20.1504 20.1098 16.0764 20.1299 11.0365C20.1501 5.99666 16.0761 1.89 11.0362 1.86987ZM10.9706 18.3042C6.94416 18.2881 3.67951 14.9973 3.69559 10.9709C3.71167 6.94448 7.00251 3.67983 11.0289 3.69591C15.0553 3.71199 18.32 7.00282 18.3039 11.0292C18.2878 15.0557 14.997 18.3203 10.9706 18.3042Z" fill="#6A6E74"/>
</svg>
