<svg width="10" height="11" viewBox="0 0 10 11" fill="none" xmlns="http://www.w3.org/2000/svg">
<mask id="mask0_16_637" style="mask-type:alpha" maskUnits="userSpaceOnUse" x="-3" y="-2" width="16" height="15">
<rect x="-2.44436" y="-1.83333" width="14.6667" height="14.6667" fill="#D9D9D9"/>
</mask>
<g mask="url(#mask0_16_637)">
<path d="M1.83333 11C1.49722 11 1.20949 10.8803 0.970139 10.641C0.730787 10.4016 0.611111 10.1139 0.611111 9.77778V1.83333H0V0.611111H3.05556V0H6.72222V0.611111H9.77778V1.83333H9.16667V9.77778C9.16667 10.1139 9.04699 10.4016 8.80764 10.641C8.56829 10.8803 8.28056 11 7.94444 11H1.83333ZM7.94444 1.83333H1.83333V9.77778H7.94444V1.83333ZM3.05556 8.55555H4.27778V3.05556H3.05556V8.55555ZM5.5 8.55555H6.72222V3.05556H5.5V8.55555Z" fill="#7A7B7C"/>
</g>
</svg>
