<svg width="17" height="17" viewBox="0 0 17 17" fill="none" xmlns="http://www.w3.org/2000/svg">
<mask id="mask0_16_465" style="mask-type:alpha" maskUnits="userSpaceOnUse" x="-3" y="-3" width="23" height="23">
<rect x="-2.83333" y="-2.83333" width="22.6667" height="22.6667" fill="#D9D9D9"/>
</mask>
<g mask="url(#mask0_16_465)">
<path d="M15.6778 17L9.72778 11.05C9.25556 11.4278 8.7125 11.7269 8.09861 11.9472C7.48472 12.1676 6.83148 12.2778 6.13889 12.2778C4.42315 12.2778 2.97106 11.6836 1.78264 10.4951C0.594213 9.30671 0 7.85463 0 6.13889C0 4.42315 0.594213 2.97106 1.78264 1.78264C2.97106 0.594213 4.42315 0 6.13889 0C7.85463 0 9.30671 0.594213 10.4951 1.78264C11.6836 2.97106 12.2778 4.42315 12.2778 6.13889C12.2778 6.83148 12.1676 7.48472 11.9472 8.09861C11.7269 8.7125 11.4278 9.25556 11.05 9.72778L17 15.6778L15.6778 17ZM6.13889 10.3889C7.31944 10.3889 8.32292 9.97569 9.14931 9.14931C9.97569 8.32292 10.3889 7.31944 10.3889 6.13889C10.3889 4.95833 9.97569 3.95486 9.14931 3.12847C8.32292 2.30208 7.31944 1.88889 6.13889 1.88889C4.95833 1.88889 3.95486 2.30208 3.12847 3.12847C2.30208 3.95486 1.88889 4.95833 1.88889 6.13889C1.88889 7.31944 2.30208 8.32292 3.12847 9.14931C3.95486 9.97569 4.95833 10.3889 6.13889 10.3889Z" fill="#7A7B7C"/>
</g>
</svg>
