<svg width="13" height="12" viewBox="0 0 13 12" fill="none" xmlns="http://www.w3.org/2000/svg">
<mask id="mask0_16_529" style="mask-type:alpha" maskUnits="userSpaceOnUse" x="-1" y="-1" width="15" height="15">
<rect x="-0.598986" y="-0.589897" width="14.1818" height="14.1818" fill="#D9D9D9"/>
</mask>
<g mask="url(#mask0_16_529)">
<path d="M1.18181 11.8181C0.856815 11.8181 0.578596 11.7024 0.347158 11.471C0.115719 11.2395 0 10.9613 0 10.6363V3.54544C0 3.22044 0.115719 2.94223 0.347158 2.71079C0.578596 2.47935 0.856815 2.36363 1.18181 2.36363H3.04317L4.13635 1.18181H7.68179V2.36363H4.65339L3.57499 3.54544H1.18181V10.6363H10.6363V5.31816H11.8181V10.6363C11.8181 10.9613 11.7024 11.2395 11.471 11.471C11.2395 11.7024 10.9613 11.8181 10.6363 11.8181H1.18181ZM10.6363 3.54544V2.36363H9.45451V1.18181H10.6363V0H11.8181V1.18181H13V2.36363H11.8181V3.54544H10.6363ZM5.90907 9.74997C6.6477 9.74997 7.27554 9.49145 7.79259 8.9744C8.30963 8.45736 8.56815 7.82952 8.56815 7.09089C8.56815 6.35225 8.30963 5.72441 7.79259 5.20737C7.27554 4.69033 6.6477 4.4318 5.90907 4.4318C5.17044 4.4318 4.5426 4.69033 4.02555 5.20737C3.50851 5.72441 3.24999 6.35225 3.24999 7.09089C3.24999 7.82952 3.50851 8.45736 4.02555 8.9744C4.5426 9.49145 5.17044 9.74997 5.90907 9.74997ZM5.90907 8.56815C5.49544 8.56815 5.14582 8.42535 4.86021 8.13975C4.57461 7.85414 4.4318 7.50452 4.4318 7.09089C4.4318 6.67725 4.57461 6.32763 4.86021 6.04203C5.14582 5.75642 5.49544 5.61362 5.90907 5.61362C6.3227 5.61362 6.67233 5.75642 6.95793 6.04203C7.24354 6.32763 7.38634 6.67725 7.38634 7.09089C7.38634 7.50452 7.24354 7.85414 6.95793 8.13975C6.67233 8.42535 6.3227 8.56815 5.90907 8.56815Z" fill="black"/>
</g>
</svg>
