<svg width="16" height="16" viewBox="0 0 16 16" fill="none" xmlns="http://www.w3.org/2000/svg">
<path d="M6.53061 2.46937L11.5306 7.46937C11.6005 7.53905 11.656 7.62184 11.6939 7.71301C11.7317 7.80417 11.7512 7.90191 11.7512 8.00062C11.7512 8.09933 11.7317 8.19707 11.6939 8.28824C11.656 8.3794 11.6005 8.46219 11.5306 8.53187L6.53061 13.5319C6.38972 13.6728 6.19862 13.7519 5.99936 13.7519C5.80011 13.7519 5.60901 13.6728 5.46811 13.5319C5.32722 13.391 5.24806 13.1999 5.24806 13.0006C5.24806 12.8014 5.32722 12.6103 5.46811 12.4694L9.93749 8L5.46749 3.53062C5.32659 3.38973 5.24744 3.19863 5.24744 2.99937C5.24744 2.80011 5.32659 2.60902 5.46749 2.46812C5.60838 2.32723 5.79948 2.24807 5.99874 2.24807C6.198 2.24807 6.38909 2.32723 6.52999 2.46812L6.53061 2.46937Z" fill="black" fill-opacity="0.6"/>
</svg>
